<svg xmlns="http://www.w3.org/2000/svg" viewBox="0 0 200 200" fill="none">
  <circle cx="100" cy="100" r="98" stroke="#3F4396" stroke-width="8"/>
  <path d="M4 100 A96 96 0 0 0 196 100" fill="#3F4396"/>
  <path d="M4 100 A96 96 0 0 1 196 100" fill="#D6408A"/>
  <circle cx="100" cy="100" r="62" fill="#61CBB0"/>
  <circle cx="28" cy="100" r="6" fill="white"/>
  <circle cx="172" cy="100" r="6" fill="white"/>
  <text x="100" y="28" text-anchor="middle" fill="white" font-family="Arial,sans-serif" font-weight="bold" font-size="14">EL RULO</text>
  <text x="100" y="178" text-anchor="middle" fill="white" font-family="Arial,sans-serif" font-weight="bold" font-size="11">PADEL CLUB</text>
  <circle cx="100" cy="58" r="5" fill="white"/>
  <path d="M88 120c0-8 6-22 12-28 6 6 12 20 12 28v18H88V120z" fill="white"/>
  <rect x="108" y="78" width="6" height="42" rx="3" fill="white" transform="rotate(25 111 99)"/>
</svg>
